<?xml version="1.0" encoding="UTF-8"?>
<svg xmlns="http://www.w3.org/2000/svg" version="1.1" fill-rule="evenodd" viewBox="0 0 204.3881 204.3882">
 <g id="SimpleTicketing_Logo">
  <circle fill="#D6E9D8" stroke="#2B2A29" stroke-width="1.4101" stroke-miterlimit="22.9256" cx="102.1941" cy="102.1941" r="101.4889"/>
  <g>
   <rect fill="#434242" stroke="#1A1A1A" stroke-width="1.4101" stroke-miterlimit="22.9256" transform="matrix(0.967037 0.259117 -0.362405 1.35252 86.6882 15.275)" width="74.8616" height="114.1875" rx="7.9852" ry="7.9852"/>
   <rect fill="#EBECEC" stroke="#2B2A29" stroke-width="1.4101" stroke-miterlimit="22.9256" transform="matrix(0.869333 0.232937 -0.287686 1.07366 87.1813 28.0635)" width="74.8616" height="114.1875" rx="3.331" ry="3.331"/>
   <circle fill="#434242" stroke="#1A1A1A" stroke-width="1.4101" stroke-miterlimit="22.9256" transform="matrix(0.965926 0.258819 -0.258819 0.965926 84.2478 169.17)" r="7.8847"/>
   <circle fill="#434242" stroke="#1A1A1A" stroke-width="1.4101" stroke-miterlimit="22.9256" transform="matrix(0.965926 0.258819 -0.258819 0.965926 121.045 31.8433)" r="3.2254"/>
  </g>
  <g>
   <path fill="#FFF7B2" stroke="#2B2A29" stroke-width="1.4101" stroke-miterlimit="22.9256" d="M88.9846 44.7808l2.3822 0.6383c-0.2591,0.9672 0.3148,1.9612 1.282,2.2205 1.1672,0.3127 2.3379,0.6265 3.5024,0.9384 0.9671,0.2591 1.9612,-0.3148 2.2205,-1.2819l2.509 0.6722c-0.259,0.9671 0.3149,1.9611 1.282,2.2203 0.967,0.2591 1.961,-0.3147 2.2203,-1.2818l1.7101 0.4583c-0.259,0.9671 0.3149,1.961 1.282,2.2202 0.967,0.2591 1.961,-0.3147 2.2203,-1.2817l1.7101 0.4582c-0.259,0.9671 0.3149,1.961 1.282,2.2202 0.967,0.2591 1.961,-0.3147 2.2203,-1.2817l1.7101 0.4582c-0.259,0.9671 0.3149,1.961 1.282,2.2202 0.967,0.2592 1.961,-0.3147 2.2203,-1.2817l1.7101 0.4582c-0.259,0.9671 0.3149,1.9611 1.282,2.2203 0.967,0.2591 1.961,-0.3147 2.2203,-1.2818l1.7101 0.4583c-0.259,0.967 0.3149,1.961 1.282,2.2202 0.967,0.2591 1.961,-0.3147 2.2203,-1.2817l1.793 0.4804c-0.2592,0.9672 0.3148,1.9612 1.282,2.2205 1.1671,0.3127 2.3379,0.6264 3.5023,0.9384 0.9672,0.2591 1.9612,-0.3148 2.2205,-1.282l3.0979 0.8301 -23.8777 89.1131 -2.7399 -0.7341 0 -0.0001c0.2591,-0.9672 -0.3149,-1.9612 -1.2819,-2.2204 -1.1646,-0.3121 -2.3353,-0.6258 -3.5025,-0.9385 -0.967,-0.2591 -1.9612,0.3148 -2.2204,1.282l0 0.0001 -1.793 -0.4805 0.0001 -0.0003c0.2591,-0.967 -0.3148,-1.9612 -1.2819,-2.2204 -0.9672,-0.2591 -1.9612,0.3149 -2.2204,1.2819l-0.0001 0.0003 -1.7101 -0.4582 0.0001 -0.0003c0.2591,-0.9671 -0.3148,-1.9612 -1.2819,-2.2204 -0.9672,-0.2592 -1.9612,0.3148 -2.2204,1.2819l-0.0001 0.0003 -1.7101 -0.4582 0.0001 -0.0003c0.2591,-0.9671 -0.3148,-1.9612 -1.2819,-2.2205 -0.9672,-0.2591 -1.9612,0.3149 -2.2204,1.282l-0.0001 0.0003 -1.7101 -0.4583 0.0001 -0.0002c0.2591,-0.9671 -0.3148,-1.9613 -1.2819,-2.2205 -0.9672,-0.2591 -1.9613,0.3149 -2.2205,1.2819l-0.0001 0.0003 -1.71 -0.4582 0.0001 -0.0003c0.2591,-0.967 -0.3148,-1.9612 -1.2819,-2.2204 -0.9672,-0.2591 -1.9613,0.3148 -2.2205,1.2819l-0.0001 0.0003 -1.71 -0.4582 0.0001 -0.0003c0.2591,-0.9671 -0.3148,-1.9612 -1.2819,-2.2204 -0.9672,-0.2592 -1.9613,0.3148 -2.2205,1.2819l-0.0001 0.0003 -2.5089 -0.6723 0 -0.0001c0.2591,-0.9671 -0.3149,-1.9612 -1.282,-2.2204 -1.1645,-0.3121 -2.3353,-0.6258 -3.5024,-0.9384 -0.9672,-0.2592 -1.9612,0.3147 -2.2204,1.2819l-0.0001 0.0001 -2.7403 -0.7343 23.8777 -89.1131zm23.8258 31.9371c0.9671,-0.259 1.9611,0.3149 2.2204,1.282 0.2591,0.9671 -0.3148,1.9613 -1.2819,2.2205 -0.9672,0.259 -1.9612,-0.3149 -2.2205,-1.282 -0.2591,-0.9671 0.3148,-1.9612 1.282,-2.2205zm5.2124 -1.3966c0.9671,-0.2591 1.9612,0.3149 2.2205,1.282 0.259,0.9671 -0.3149,1.9612 -1.282,2.2205 -0.9671,0.259 -1.9613,-0.3149 -2.2205,-1.282 -0.2591,-0.9671 0.3149,-1.9612 1.282,-2.2205zm5.2123 -1.3966c0.9672,-0.2591 1.9613,0.3149 2.2205,1.282 0.2592,0.9671 -0.3148,1.9612 -1.2819,2.2205 -0.9672,0.259 -1.9612,-0.3149 -2.2205,-1.282 -0.2591,-0.9671 0.3148,-1.9613 1.2819,-2.2205zm5.2125 -1.3966c0.9671,-0.2591 1.9612,0.3149 2.2204,1.2819 0.2591,0.9671 -0.3148,1.9613 -1.2819,2.2205 -0.9671,0.2592 -1.9612,-0.3149 -2.2205,-1.282 -0.2591,-0.9671 0.3148,-1.9612 1.282,-2.2204zm5.2123 -1.3966c0.9671,-0.2591 1.9613,0.3148 2.2205,1.2819 0.2592,0.9671 -0.3148,1.9613 -1.282,2.2205 -0.9671,0.2592 -1.9612,-0.3149 -2.2203,-1.282 -0.2592,-0.9671 0.3148,-1.9612 1.2818,-2.2204zm-52.1236 13.9665c0.9671,-0.2592 1.9613,0.3148 2.2205,1.282 0.2592,0.9671 -0.3148,1.9612 -1.282,2.2203 -0.9671,0.2592 -1.9612,-0.3148 -2.2204,-1.2818 -0.2591,-0.9672 0.3148,-1.9613 1.2819,-2.2205zm5.2125 -1.3967c0.9671,-0.2591 1.9612,0.3148 2.2204,1.282 0.2591,0.9671 -0.3148,1.9613 -1.2819,2.2204 -0.9672,0.2591 -1.9612,-0.3148 -2.2205,-1.2819 -0.2591,-0.9671 0.3148,-1.9612 1.282,-2.2205zm5.2124 -1.3966c0.9671,-0.2591 1.9612,0.3148 2.2204,1.282 0.2591,0.9671 -0.3149,1.9612 -1.2819,2.2204 -0.9671,0.2591 -1.9613,-0.3148 -2.2205,-1.2819 -0.2591,-0.9671 0.3149,-1.9612 1.282,-2.2205zm5.2123 -1.3966c0.9672,-0.2591 1.9613,0.3149 2.2205,1.282 0.2592,0.9671 -0.3148,1.9612 -1.2819,2.2205 -0.9672,0.259 -1.9612,-0.3149 -2.2205,-1.282 -0.2591,-0.9671 0.3148,-1.9613 1.2819,-2.2205zm5.2125 -1.3966c0.9671,-0.2591 1.9612,0.3149 2.2204,1.282 0.2591,0.9671 -0.3148,1.9612 -1.2819,2.2204 -0.9671,0.2591 -1.9613,-0.3149 -2.2205,-1.282 -0.2592,-0.9671 0.3148,-1.9612 1.282,-2.2204zm5.2124 -1.3967c0.967,-0.259 1.9612,0.3149 2.2204,1.282 0.2592,0.9671 -0.3148,1.9613 -1.282,2.2205 -0.967,0.2591 -1.9612,-0.3149 -2.2203,-1.282 -0.2592,-0.9671 0.3148,-1.9612 1.2819,-2.2205z"/>
   <g>
    <line fill="none" stroke="#575554" stroke-width="3.5253" stroke-linecap="round" stroke-linejoin="bevel" stroke-miterlimit="22.9256" x1="91.9174" y1="57.9066" x2="120.5854" y2= "65.5881" />
    <line fill="none" stroke="#575554" stroke-width="3.5253" stroke-linecap="round" stroke-linejoin="bevel" stroke-miterlimit="22.9256" x1="81.3105" y1="124.5344" x2="88.992" y2= "95.8665" />
    <line fill="none" stroke="#575554" stroke-width="3.5253" stroke-linecap="round" stroke-linejoin="bevel" stroke-miterlimit="22.9256" x1="95.2101" y1="128.2588" x2="102.8916" y2= "99.5909" />
    <line fill="none" stroke="#575554" stroke-width="3.5253" stroke-linecap="round" stroke-linejoin="bevel" stroke-miterlimit="22.9256" x1="109.1098" y1="131.9832" x2="120.7485" y2= "88.5469" />
   </g>
  </g>
 </g>
</svg>
